# xmcd
#
# Track frame offsets:
# 150
# 14769
# 31993
# 48324
# 56948
# 76937
# 99293
# 115781
# 132882
# 146463
#
# Disc length: 2077 seconds
#
#
# Revision: 0
# Processed by: cddbd v1.5.1PL0 Copyright (c) Steve Scherf et al.
# Submitted via: FreeRIP 2.40 
#
DISCID=80081b0a
DTITLE=Bubbi Morteins - Kona
DYEAR=1988
DGENRE=Folk/Rock
TTITLE0=Frosin Gríma
TTITLE1=Talað Við Gluggann
TTITLE2=Kona
TTITLE3=Söngurinn Hennar Siggu
TTITLE4=Seinasta Augnablikið
TTITLE5=Rómeó Og Júlía
TTITLE6=Eina Nótt Í Viðbót
TTITLE7=Systir Minna Auðmýktu Bræðra
TTITLE8=Sandurinn Í Glasinu
TTITLE9=Spegillinn Í Bréfinu
EXTD=\n
EXTT0=
EXTT1=
EXTT2=
EXTT3=
EXTT4=
EXTT5=
EXTT6=
EXTT7=
EXTT8=
EXTT9=
PLAYORDER=
